# xmcd
#
# Track frame offsets:
#	150
#	18310
#	35787
#	57966
#
# Disc length: 998 seconds
#
# Revision: 1
# Processed by: cddbd v1.5.2PL0 Copyright (c) Steve Scherf et al.
# Submitted via: audiograbber 1.83.01
#
DISCID=2e03e404
DTITLE=Bluesberries - www.bluesberries.de
DYEAR=2002
DGENRE=Rock and Soul
TTITLE0=With the sun
TTITLE1=Weiﬂt Du?
TTITLE2=Sunshine Blues
TTITLE3=Woman
EXTD=
EXTT0=
EXTT1=
EXTT2=
EXTT3=
PLAYORDER=
